<?xml version="1.0" encoding="UTF-8"?>
<svg width="20px" height="20px" viewBox="0 0 20 20" version="1.1" xmlns="http://www.w3.org/2000/svg" xmlns:xlink="http://www.w3.org/1999/xlink">
    <title>编组</title>
    <g id="页面-1" stroke="none" stroke-width="1" fill="none" fill-rule="evenodd">
        <g id="项目备份-10" transform="translate(-1288.000000, -131.000000)">
            <g id="编组" transform="translate(1288.000000, 131.000000)">
                <polygon id="路径" points="0 0 20 0 20 20 0 20"></polygon>
                <path d="M15.4475,16.3058333 C13.9353674,17.6161163 12.0008445,18.3361246 10,18.3333414 C5.3975,18.3333414 1.66666667,14.6025 1.66666667,10 C1.66666667,5.3975 5.3975,1.66666667 10,1.66666667 C14.6025,1.66666667 18.3333333,5.3975 18.3333333,10 C18.3333333,11.78 17.775,13.43 16.825,14.7833333 L14.1666667,10 L16.6666667,10 C16.6664065,6.83236555 14.4372186,4.10228982 11.3336103,3.46863136 C8.23000187,2.8349729 5.10904335,4.47271831 3.86710287,7.38673476 C2.62516238,10.3007512 3.60520536,13.6863247 6.21173453,15.4863008 C8.8182637,17.2862768 12.3314785,17.0035869 14.6166667,14.81 L15.4475,16.3058333 Z" id="路径" fill="#9A9FA5" fill-rule="nonzero"></path>
            </g>
        </g>
    </g>
</svg>