<svg height="253" legacy-metrics="false" node-id="1" sillyvg="true" template-height="253" template-width="257" version="1.1" viewBox="0 0 257 253" width="257" xmlns="http://www.w3.org/2000/svg" xmlns:xlink="http://www.w3.org/1999/xlink"><defs node-id="76"></defs><path d="M 253.48 119.33 C 253.48 78.62 220.41 45.63 179.61 45.63 C 178.97 45.63 178.35 45.66 177.72 45.68 C 164.83 24.09 141.22 9.61 114.20 9.61 C 73.40 9.61 40.33 42.61 40.33 83.31 C 40.33 83.84 40.36 84.36 40.37 84.88 C 18.06 97.56 3.00 121.49 3.00 148.94 C 3.00 189.64 36.07 222.63 76.87 222.63 C 79.19 222.63 81.48 222.51 83.75 222.30 C 97.30 238.68 117.80 249.12 140.75 249.12 C 178.46 249.12 209.54 220.92 214.04 184.52 C 237.49 172.17 253.48 147.62 253.48 119.33 Z" fill="#d6f0ff" fill-rule="nonzero" node-id="78" stroke="none" target-height="239.504" target-width="250.479" target-x="3" target-y="9.612"></path><g node-id="147"><path d="M 181.02 131.35 C 166.15 161.41 143.66 82.00 117.81 82.00 C 78.66 82.00 87.75 146.06 44.02 119.35 C 22.68 106.32 10.30 119.15 4.87 132.96 C 3.82 137.89 3.27 143.00 3.27 148.23 C 3.27 188.93 36.34 221.92 77.14 221.92 C 79.46 221.92 81.75 221.80 84.02 221.60 C 97.57 237.97 118.07 248.41 141.02 248.41 C 178.73 248.41 209.81 220.22 214.31 183.81 C 230.07 175.51 242.45 161.69 248.88 144.94 C 223.69 111.21 210.00 72.78 181.02 131.35 Z" fill="#6e6e96" fill-opacity="0.19" fill-rule="nonzero" group-id="1" node-id="82" stroke-linecap="butt" stroke-opacity="0.19" stroke-width="1" target-height="166.409" target-width="245.612" target-x="3.27" target-y="82"></path></g><g node-id="148"><path d="M 230.75 28.56 L 206.75 28.56 C 205.92 28.56 205.25 27.89 205.25 27.06 C 205.25 26.23 205.92 25.56 206.75 25.56 L 230.75 25.56 C 231.58 25.56 232.25 26.23 232.25 27.06 C 232.25 27.89 231.58 28.56 230.75 28.56 Z" fill="#6e6e96" fill-opacity="0.2" fill-rule="nonzero" group-id="2" node-id="87" stroke-linecap="butt" stroke-opacity="0.2" stroke-width="1" target-height="3" target-width="27" target-x="205.25" target-y="25.559"></path></g><g node-id="149"><path d="M 221.25 35.56 L 196.75 35.56 C 195.92 35.56 195.25 34.89 195.25 34.06 C 195.25 33.23 195.92 32.56 196.75 32.56 L 221.25 32.56 C 222.08 32.56 222.75 33.23 222.75 34.06 C 222.75 34.89 222.08 35.56 221.25 35.56 Z" fill="#6e6e96" fill-opacity="0.2" fill-rule="nonzero" group-id="3" node-id="92" stroke-linecap="butt" stroke-opacity="0.2" stroke-width="1" target-height="3" target-width="27.5" target-x="195.25" target-y="32.559"></path></g><g node-id="150"><path d="M 19.75 66.56 L 5.75 66.56 C 4.92 66.56 4.25 65.89 4.25 65.06 C 4.25 64.23 4.92 63.56 5.75 63.56 L 19.75 63.56 C 20.58 63.56 21.25 64.23 21.25 65.06 C 21.25 65.89 20.58 66.56 19.75 66.56 Z" fill="#6e6e96" fill-opacity="0.2" fill-rule="nonzero" group-id="4" node-id="97" stroke-linecap="butt" stroke-opacity="0.2" stroke-width="1" target-height="3" target-width="17" target-x="4.25" target-y="63.559"></path></g><g node-id="151"><path d="M 29.75 73.56 L 17.75 73.56 C 16.92 73.56 16.25 72.89 16.25 72.06 C 16.25 71.23 16.92 70.56 17.75 70.56 L 29.75 70.56 C 30.58 70.56 31.25 71.23 31.25 72.06 C 31.25 72.89 30.58 73.56 29.75 73.56 Z" fill="#6e6e96" fill-opacity="0.2" fill-rule="nonzero" group-id="5" node-id="102" stroke-linecap="butt" stroke-opacity="0.2" stroke-width="1" target-height="3" target-width="15" target-x="16.25" target-y="70.559"></path></g><g node-id="152"><path d="M 63.34 115.51 C 63.34 109.03 57.70 103.78 50.75 103.78 C 50.64 103.78 50.53 103.79 50.42 103.79 C 48.23 100.35 44.21 98.05 39.60 98.05 C 32.65 98.05 27.01 103.30 27.01 109.78 C 27.01 109.86 27.02 109.95 27.02 110.03 C 23.22 112.05 20.65 115.85 20.65 120.22 C 20.65 126.70 26.29 131.95 33.24 131.95 C 33.63 131.95 34.02 131.93 34.41 131.90 C 36.72 134.51 40.21 136.17 44.12 136.17 C 50.55 136.17 55.85 131.68 56.61 125.89 C 60.61 123.92 63.34 120.01 63.34 115.51 Z" fill="#bfdbca" fill-rule="nonzero" group-id="6" node-id="107" stroke="none" target-height="38.117004" target-width="42.686005" target-x="20.651" target-y="98.05"></path><g node-id="156"><path d="M 50.54 103.36 C 50.43 103.36 50.32 103.36 50.22 103.37 C 48.46 100.61 45.52 98.59 42.05 97.89 C 44.79 98.58 47.10 100.25 48.53 102.47 C 48.62 102.47 49.88 104.65 49.97 104.65 C 55.94 104.65 58.71 107.86 58.71 113.42 C 58.71 117.29 57.27 119.75 53.84 121.44 C 53.18 126.41 48.63 130.26 43.12 130.26 C 39.76 130.26 36.77 128.83 34.78 126.60 C 34.45 126.63 34.12 126.64 33.78 126.64 C 27.81 126.64 23.13 123.81 23.13 118.25 C 23.13 114.51 24.80 112.67 27.85 110.45 C 27.77 109.97 27.43 105.73 28.56 104.60 C 31.25 101.91 32.46 99.61 34.87 98.42 C 30.15 100.11 26.81 104.37 26.81 109.36 C 26.81 109.44 26.81 109.53 26.81 109.61 C 23.01 111.63 20.44 115.43 20.44 119.81 C 20.44 126.28 26.08 131.53 33.03 131.53 C 33.43 131.53 33.82 131.51 34.20 131.48 C 36.51 134.09 40.01 135.75 43.92 135.75 C 50.34 135.75 55.64 131.26 56.41 125.46 C 60.40 123.50 63.13 119.59 63.13 115.09 C 63.12 108.61 57.49 103.36 50.54 103.36 Z" fill="#6e6e96" fill-opacity="0.24" fill-rule="nonzero" group-id="6,10" node-id="111" stroke-linecap="butt" stroke-opacity="0.24" stroke-width="1" target-height="37.856003" target-width="42.683" target-x="20.444" target-y="97.89"></path></g><path d="M 32.62 121.85 C 32.62 121.85 39.14 123.13 39.14 129.51 C 39.14 129.51 40.90 140.35 34.11 148.01 L 49.78 148.01 C 49.62 147.80 36.09 129.73 51.15 118.98 C 41.97 124.23 32.62 121.85 32.62 121.85 Z" fill="#ede3da" fill-rule="nonzero" group-id="6" node-id="114" stroke="none" target-height="29.031006" target-width="18.528" target-x="32.622" target-y="118.983"></path><path d="M 47.24 121.84 C 47.24 121.84 37.35 134.61 44.95 148.01 L 49.78 148.01 C 49.77 148.01 39.74 133.98 47.24 121.84 Z" fill="#6e6e96" fill-opacity="0.11" fill-rule="nonzero" group-id="6,11" node-id="118" stroke-linecap="butt" stroke-opacity="0.11" stroke-width="1" target-height="26.17701" target-width="7.6801987" target-x="42.095802" target-y="121.837"></path></g><path d="M 156.75 43.56 L 129.75 43.56 C 128.92 43.56 128.25 42.89 128.25 42.06 C 128.25 41.23 128.92 40.56 129.75 40.56 L 156.75 40.56 C 157.58 40.56 158.25 41.23 158.25 42.06 C 158.25 42.89 157.58 43.56 156.75 43.56 Z" fill="#ffffff" fill-rule="nonzero" node-id="122" stroke="none" target-height="3" target-width="30" target-x="128.25" target-y="40.559"></path><path d="M 37.46 211.41 C 57.19 184.89 84.02 166.22 114.33 159.73 C 79.12 161.79 47.69 177.78 25.56 202.23 C 29.25 205.79 33.33 208.95 37.70 211.69 C 37.62 211.60 37.54 211.51 37.46 211.41 Z" fill="#ffffff" fill-opacity="0.27" fill-rule="nonzero" group-id="7" node-id="126" stroke-linecap="butt" stroke-opacity="0.27" stroke-width="1" target-height="51.955" target-width="88.772" target-x="25.562" target-y="159.73"></path><path d="M 165.75 51.56 L 139.75 51.56 C 138.92 51.56 138.25 50.89 138.25 50.06 C 138.25 49.23 138.92 48.56 139.75 48.56 L 165.75 48.56 C 166.58 48.56 167.25 49.23 167.25 50.06 C 167.25 50.89 166.58 51.56 165.75 51.56 Z" fill="#ffffff" fill-rule="nonzero" node-id="129" stroke="none" target-height="3" target-width="29" target-x="138.25" target-y="48.559"></path><path d="M 57.52 149.38 C 47.09 147.60 33.75 146.99 16.96 148.99 C 16.91 149.00 16.86 149.01 16.81 149.02 C 19.09 149.19 79.61 154.85 63.25 164.06 C 56.81 167.68 23.25 176.56 13.31 186.50 C 16.71 192.22 20.87 197.43 25.64 202.02 C 36.91 191.51 64.31 168.11 89.51 163.30 C 80.22 156.85 69.37 152.03 57.52 149.38 Z" fill="#6e6e96" fill-opacity="0.23" fill-rule="nonzero" group-id="8" node-id="133" stroke-linecap="butt" stroke-opacity="0.23" stroke-width="1" target-height="54.250732" target-width="76.19701" target-x="13.312" target-y="147.76627"></path><path d="M 63.25 11.06 C 62.24 11.06 61.25 11.13 60.27 11.25 C 70.85 11.87 79.25 20.63 79.25 31.37 C 79.25 42.52 70.21 51.56 59.06 51.56 C 48.32 51.56 39.56 43.16 38.94 32.58 C 38.82 33.56 38.75 34.55 38.75 35.56 C 38.75 49.09 49.72 60.06 63.25 60.06 C 76.78 60.06 87.75 49.09 87.75 35.56 C 87.75 22.03 76.78 11.06 63.25 11.06 Z" fill="#6e6e96" fill-opacity="0.15" fill-rule="nonzero" group-id="9" node-id="138" stroke-linecap="butt" stroke-opacity="0.15" stroke-width="1" target-height="49" target-width="49" target-x="38.75" target-y="11.059"></path><path d="M 209.61 202.02 C 210.49 199.75 211.27 197.44 211.93 195.08 C 188.62 172.87 156.97 159.20 122.09 159.20 C 83.75 159.20 49.30 175.70 25.56 201.93 C 25.59 201.96 25.62 201.99 25.66 202.02 L 209.61 202.02 Z" fill="#90dbb2" fill-rule="nonzero" node-id="141" stroke="none" target-height="42.81801" target-width="186.365" target-x="25.56" target-y="159.2"></path><path d="M 25.64 202.02 L 118.76 202.02 C 108.90 170.36 75.71 147.06 36.25 147.06 C 24.50 147.06 13.30 149.13 3.11 152.87 C 4.12 172.15 12.57 189.46 25.64 202.02 Z" fill="#81c49f" fill-rule="nonzero" node-id="143" stroke="none" target-height="54.959" target-width="115.651" target-x="3.107" target-y="147.059"></path><path d="M 88.03 32.73 C 88.03 46.89 76.55 58.37 62.39 58.37 C 48.23 58.37 36.75 46.89 36.75 32.73 C 36.75 18.57 48.23 7.09 62.39 7.09 C 76.55 7.09 88.03 18.57 88.03 32.73 Z" fill="#ffe97a" fill-rule="nonzero" node-id="145" stroke="none" target-height="51.281998" target-width="51.281998" target-x="36.751" target-y="7.088"></path></svg>