<?xml version="1.0" encoding="UTF-8"?>
<svg width="18px" height="18px" viewBox="0 0 18 18" version="1.1" xmlns="http://www.w3.org/2000/svg" xmlns:xlink="http://www.w3.org/1999/xlink">
    <title>形状</title>
    <g id="页面-1" stroke="none" stroke-width="1" fill="none" fill-rule="evenodd">
        <g id="项目-监测点详情" transform="translate(-389.000000, -217.000000)" fill="#9FA4AA" fill-rule="nonzero">
            <g id="编组备份-6" transform="translate(388.000000, 217.000000)">
                <path d="M14.1666667,2.5 L17.5,2.5 C17.9602373,2.5 18.3333333,2.87309604 18.3333333,3.33333333 L18.3333333,16.6666667 C18.3333333,17.126904 17.9602373,17.5 17.5,17.5 L2.5,17.5 C2.03976271,17.5 1.66666667,17.126904 1.66666667,16.6666667 L1.66666667,3.33333333 C1.66666667,2.87309604 2.03976271,2.5 2.5,2.5 L5.83333333,2.5 L5.83333333,0.833333333 L7.5,0.833333333 L7.5,2.5 L12.5,2.5 L12.5,0.833333333 L14.1666667,0.833333333 L14.1666667,2.5 Z M16.6666667,9.16666667 L3.33333333,9.16666667 L3.33333333,15.8333333 L16.6666667,15.8333333 L16.6666667,9.16666667 Z M12.5,4.16666667 L7.5,4.16666667 L7.5,5.83333333 L5.83333333,5.83333333 L5.83333333,4.16666667 L3.33333333,4.16666667 L3.33333333,7.5 L16.6666667,7.5 L16.6666667,4.16666667 L14.1666667,4.16666667 L14.1666667,5.83333333 L12.5,5.83333333 L12.5,4.16666667 Z M5,10.8333333 L6.66666667,10.8333333 L6.66666667,12.5 L5,12.5 L5,10.8333333 Z M9.16666667,10.8333333 L10.8333333,10.8333333 L10.8333333,12.5 L9.16666667,12.5 L9.16666667,10.8333333 Z M13.3333333,10.8333333 L15,10.8333333 L15,12.5 L13.3333333,12.5 L13.3333333,10.8333333 Z" id="形状"></path>
            </g>
        </g>
    </g>
</svg>